<svg width="2318" height="156" viewBox="0 0 2318 156" fill="none" xmlns="http://www.w3.org/2000/svg">
<path d="M551.065 140.296V155H557.935V139.696H562.117C565.462 139.456 566 136.696 566 135.495V120.792C566 118.391 561.818 117.791 561.221 120.792V135.495H557.935V110.589C557.338 107.289 551.662 106.989 551.065 110.589V135.495H547.779V122.592C546.345 119.952 543.896 120.492 543 122.592V136.696C543 139.816 544.991 140.396 545.987 140.296H551.065Z" stroke="#E9FF18" stroke-opacity="0.35"/>
<path d="M479.312 143.738V155H484.688V143.278H487.961C490.579 143.094 491 140.98 491 140.06V128.798C491 126.959 487.727 126.5 487.26 128.798V140.06H484.688V120.983C484.221 118.455 479.779 118.225 479.312 120.983V140.06H476.74V130.177C475.618 128.154 473.701 128.568 473 130.177V140.98C473 143.37 474.558 143.814 475.338 143.738H479.312Z" stroke="#E9FF18" stroke-opacity="0.35"/>
<path d="M829.065 140.296V155H835.935V139.696H840.117C843.462 139.456 844 136.696 844 135.495V120.792C844 118.391 839.818 117.791 839.221 120.792V135.495H835.935V110.589C835.338 107.289 829.662 106.989 829.065 110.589V135.495H825.779V122.592C824.345 119.952 821.896 120.492 821 122.592V136.696C821 139.816 822.991 140.396 823.987 140.296H829.065Z" stroke="#E9FF18" stroke-opacity="0.35"/>
<path d="M1516.36 141.548V155H1522.64V140.999H1526.45C1529.51 140.779 1530 138.253 1530 137.155V123.703C1530 121.507 1526.18 120.958 1525.64 123.703V137.155H1522.64V114.369C1522.09 111.349 1516.91 111.075 1516.36 114.369V137.155H1513.36V125.35C1512.05 122.934 1509.82 123.429 1509 125.35V138.253C1509 141.109 1510.82 141.639 1511.73 141.548H1516.36Z" stroke="#E9FF18" stroke-opacity="0.35"/>
<path d="M1492.61 144.989V155H1497.39V144.58H1500.3C1502.63 144.417 1503 142.537 1503 141.72V131.709C1503 130.075 1500.09 129.666 1499.68 131.709V141.72H1497.39V124.763C1496.97 122.516 1493.03 122.311 1492.61 124.763V141.72H1490.32V132.935C1489.33 131.137 1487.62 131.505 1487 132.935V142.537C1487 144.662 1488.39 145.057 1489.08 144.989H1492.61Z" stroke="#E9FF18" stroke-opacity="0.35"/>
<path d="M1540.56 146.866V155H1544.44V146.534H1546.81C1548.7 146.401 1549 144.874 1549 144.21V136.076C1549 134.748 1546.64 134.416 1546.3 136.076V144.21H1544.44V130.432C1544.1 128.606 1540.9 128.44 1540.56 130.432V144.21H1538.7V137.072C1537.89 135.611 1536.51 135.91 1536 137.072V144.874C1536 146.601 1537.13 146.921 1537.69 146.866H1540.56Z" stroke="#E9FF18" stroke-opacity="0.35"/>
<path d="M1164.06 140.609V155H1170.94V140.022H1175.12C1178.46 139.787 1179 137.085 1179 135.91V121.52C1179 119.17 1174.82 118.583 1174.22 121.52V135.91H1170.94V111.534C1170.34 108.304 1164.66 108.01 1164.06 111.534V135.91H1160.78V123.282C1159.35 120.697 1156.9 121.226 1156 123.282V137.085C1156 140.139 1157.99 140.707 1158.99 140.609H1164.06Z" stroke="#E9FF18" stroke-opacity="0.35"/>
<path d="M2113.17 137.168V155H2121.83V136.44H2127.1C2131.32 136.149 2132 132.801 2132 131.345V113.513C2132 110.602 2126.73 109.874 2125.97 113.513V131.345H2121.83V101.14C2121.08 97.1373 2113.92 96.7733 2113.17 101.14V131.345H2109.03V115.697C2107.22 112.494 2104.13 113.149 2103 115.697V132.801C2103 136.586 2105.51 137.289 2106.77 137.168H2113.17Z" stroke="#E9FF18" stroke-opacity="0.35"/>
<path d="M852.662 142.486V155H858.338V141.976H861.792C864.556 141.771 865 139.422 865 138.4V125.887C865 123.844 861.545 123.333 861.052 125.887V138.4H858.338V117.204C857.844 114.395 853.156 114.139 852.662 117.204V138.4H849.948V127.419C848.764 125.172 846.74 125.631 846 127.419V139.422C846 142.078 847.645 142.571 848.468 142.486H852.662Z" stroke="#E9FF18" stroke-opacity="0.35"/>
<path d="M216.437 153.396L217 155H177L179.254 146.089L186.39 138.426L189.207 137L190.521 137.535L192.775 138.069L198.596 142.703L200.286 150.01L202.54 148.228L208.737 146.802L216.437 153.396Z" stroke="#E9FF18" stroke-opacity="0.35"/>
<path d="M1705.44 153.396L1706 155H1666L1668.25 146.089L1675.39 138.426L1678.21 137L1679.52 137.535L1681.77 138.069L1687.6 142.703L1689.29 150.01L1691.54 148.228L1697.74 146.802L1705.44 153.396Z" stroke="#E9FF18" stroke-opacity="0.35"/>
<path d="M312.465 153.663L312 155H345L343.141 147.574L337.254 141.188L334.93 140L333.845 140.446L331.986 140.891L327.183 144.752L325.789 150.842L323.93 149.356L318.817 148.168L312.465 153.663Z" stroke="#E9FF18" stroke-opacity="0.35"/>
<path d="M1036.51 153.574L1036 155H1072L1069.97 147.079L1063.55 140.267L1061.01 139L1059.83 139.475L1057.8 139.95L1052.56 144.069L1051.04 150.564L1049.01 148.98L1043.44 147.713L1036.51 153.574Z" stroke="#E9FF18" stroke-opacity="0.35"/>
<path d="M1736.56 153.396L1736 155H1776L1773.75 146.089L1766.61 138.426L1763.79 137L1762.48 137.535L1760.23 138.069L1754.4 142.703L1752.71 150.01L1750.46 148.228L1744.26 146.802L1736.56 153.396Z" stroke="#E9FF18" stroke-opacity="0.35"/>
<path d="M1943.59 153.574L1943 155H1985L1982.63 147.079L1975.14 140.267L1972.18 139L1970.8 139.475L1968.44 139.95L1962.32 144.069L1960.55 150.564L1958.18 148.98L1951.68 147.713L1943.59 153.574Z" stroke="#E9FF18" stroke-opacity="0.35"/>
<path d="M780.408 153.842L780 155H809L807.366 148.564L802.192 143.03L800.15 142L799.197 142.386L797.563 142.772L793.343 146.119L792.117 151.396L790.484 150.109L785.991 149.079L780.408 153.842Z" stroke="#E9FF18" stroke-opacity="0.35"/>
</svg>
