<svg width="2318" height="85" viewBox="0 0 2318 85" fill="none" xmlns="http://www.w3.org/2000/svg">
<path d="M528.6 45.95C527.73 37.2758 521.648 32 514.5 32C507.744 32 503.392 36.6694 501.967 41.3C496.092 41.8812 491 45.5228 491 52.15C491 58.5437 496.288 63 502.75 63H528.208C533.594 63 538 60.3417 538 54.475C538 48.6799 532.81 46.167 528.6 45.95Z" stroke="#E9FF18" stroke-opacity="0.35" stroke-linejoin="round"/>
<path d="M1440.6 14.95C1439.73 6.27581 1433.65 1 1426.5 1C1419.74 1 1415.39 5.66937 1413.97 10.3C1408.09 10.8812 1403 14.5228 1403 21.15C1403 27.5437 1408.29 32 1414.75 32H1440.21C1445.59 32 1450 29.3417 1450 23.475C1450 17.6799 1444.81 15.167 1440.6 14.95Z" stroke="#E9FF18" stroke-opacity="0.35" stroke-linejoin="round"/>
<path d="M1980.6 40.95C1979.73 32.2758 1973.65 27 1966.5 27C1959.74 27 1955.39 31.6694 1953.97 36.3C1948.09 36.8812 1943 40.5228 1943 47.15C1943 53.5437 1948.29 58 1954.75 58H1980.21C1985.59 58 1990 55.3417 1990 49.475C1990 43.6799 1984.81 41.167 1980.6 40.95Z" stroke="#E9FF18" stroke-opacity="0.35" stroke-linejoin="round"/>
<path d="M1306.4 66.95C1305.42 58.2758 1298.56 53 1290.5 53C1282.88 53 1277.97 57.6694 1276.37 62.3C1269.74 62.8812 1264 66.5228 1264 73.15C1264 79.5437 1269.96 84 1277.25 84H1305.96C1312.03 84 1317 81.3417 1317 75.475C1317 69.6799 1311.15 67.167 1306.4 66.95Z" stroke="#E9FF18" stroke-opacity="0.35" stroke-linejoin="round"/>
<path d="M1037.4 29.9C1036.23 18.1479 1028.08 11 1018.5 11C1009.44 11 1003.61 17.3262 1001.7 23.6C993.825 24.3875 987 29.3212 987 38.3C987 46.9625 994.087 53 1002.75 53H1036.87C1044.09 53 1050 49.3985 1050 41.45C1050 33.5986 1043.04 30.194 1037.4 29.9Z" stroke="#E9FF18" stroke-opacity="0.35" stroke-linejoin="round"/>
<path d="M1081.4 44.9C1080.23 33.1479 1072.08 26 1062.5 26C1053.44 26 1050.5 29.5 1047.5 34.5C1056.5 48 1041.5 55 1031 53.3C1031 61.9625 1038.09 68 1046.75 68H1080.88C1088.09 68 1094 64.3985 1094 56.45C1094 48.5986 1087.04 45.194 1081.4 44.9Z" stroke="#E9FF18" stroke-opacity="0.35" stroke-linejoin="round"/>
<path d="M1660.4 45.9C1659.23 34.1479 1651.08 27 1641.5 27C1632.44 27 1626.61 33.3262 1624.7 39.6C1616.82 40.3875 1610 45.3212 1610 54.3C1610 62.9625 1617.09 69 1625.75 69H1659.87C1667.09 69 1673 65.3985 1673 57.45C1673 49.5986 1666.04 46.194 1660.4 45.9Z" stroke="#E9FF18" stroke-opacity="0.35" stroke-linejoin="round"/>
<path d="M1704.4 60.9C1703.23 49.1479 1695.08 42 1685.5 42C1676.44 42 1673.5 45.5 1670.5 50.5C1679.5 64 1664.5 71 1654 69.3C1654 77.9625 1661.09 84 1669.75 84H1703.88C1711.09 84 1717 80.3985 1717 72.45C1717 64.5986 1710.04 61.194 1704.4 60.9Z" stroke="#E9FF18" stroke-opacity="0.35" stroke-linejoin="round"/>
</svg>
