<svg height="75" viewBox="0 0 90 86" fill="none" xmlns="http://www.w3.org/2000/svg">
<path d="M32.6234 62.8497V86H43.3766V61.9048H49.9221C55.1584 61.5268 56 57.1803 56 55.2904V32.1401C56 28.3605 49.4545 27.4157 48.5195 32.1401V55.2904H43.3766V16.0767C42.4416 10.88 33.5584 10.4075 32.6234 16.0767V55.2904H27.4805V34.9749C25.2364 30.8173 21.4026 31.6677 20 34.9749V57.1803C20 62.0938 23.1169 63.0072 24.6753 62.8497H32.6234Z" fill="#9E9E9E"/>
<path d="M70.5195 66.9167V86H79.4805V66.1377H84.9351C89.2987 65.8262 90 62.2432 90 60.6854V41.602C90 38.4864 84.5455 37.7075 83.7662 41.602V60.6854H79.4805V28.3605C78.7013 24.0768 71.2987 23.6873 70.5195 28.3605V60.6854H66.2338V43.9388C64.3636 40.5116 61.1688 41.2126 60 43.9388V62.2432C60 66.2935 62.5974 67.0465 63.8961 66.9167H70.5195Z" fill="#9E9E9E"/>
<path d="M6.31169 74.7377V86H11.6883V74.278H14.961C17.5792 74.0941 18 71.9796 18 71.0602V59.7979C18 57.9592 14.7273 57.4995 14.2597 59.7979V71.0602H11.6883V51.9833C11.2208 49.4551 6.77922 49.2253 6.31169 51.9833V71.0602H3.74026V61.177C2.61818 59.1544 0.701299 59.5681 0 61.177V71.9796C0 74.37 1.55844 74.8143 2.33766 74.7377H6.31169Z" fill="#9E9E9E"/>
</svg>
