<svg height="40" viewBox="0 0 68 34" fill="none" xmlns="http://www.w3.org/2000/svg">
<g clip-path="url(#clip0_593_1356)">
<path d="M42.4054 3.9161C50.5085 1.11138 56.7871 0.53875 58.2787 2.89257C60.4977 6.39445 51.2947 15.0013 37.75 22.1261C24.2054 29.251 11.423 32.2093 9.2039 28.7074C7.71327 26.355 11.4111 21.6581 18.1531 16.6538" fill="#9E9E9E"/>
<path d="M18.6875 17.3046C19.7234 18.9394 26.0564 17.3736 32.8312 13.8099C39.606 10.2461 44.2608 6.03205 43.2249 4.39725L43.1921 4.34547C40.6214 0.288797 33.0435 -0.110074 26.2687 3.45366C19.4939 7.01738 16.0841 13.1962 18.6547 17.2529L18.6875 17.3046Z" fill="#9E9E9E"/>
<path d="M43 3.5C41.5 10.6596 26.5 19.2737 18 16.4099" stroke="black"/>
<path d="M46 15.5815L53.72 17.4384" stroke="#9E9E9E" stroke-width="2" stroke-linecap="round" stroke-linejoin="round"/>
<path d="M28.6806 26L27.8125 32.3745" stroke="#9E9E9E" stroke-width="2" stroke-linecap="round" stroke-linejoin="round"/>
<path d="M27 23.0133L27.0251 23.0001" stroke="black" stroke-width="2" stroke-linecap="round" stroke-linejoin="round"/>
<path d="M38 18.0133L38.0251 18.0001" stroke="black" stroke-width="2" stroke-linecap="round" stroke-linejoin="round"/>
<path d="M48 11.0133L48.0251 11.0001" stroke="black" stroke-width="2" stroke-linecap="round" stroke-linejoin="round"/>
<path d="M15 26.0133L15.0251 26.0001" stroke="black" stroke-width="2" stroke-linecap="round" stroke-linejoin="round"/>
<path d="M54 5.01331L54.0251 5.00009" stroke="black" stroke-width="2" stroke-linecap="round" stroke-linejoin="round"/>
</g>
<defs>
<clipPath id="clip0_593_1356">
<rect width="68" height="34" fill="white"/>
</clipPath>
</defs>
</svg>
