<svg  height="65" viewBox="0 0 74 86" fill="none" xmlns="http://www.w3.org/2000/svg">
<path d="M14.7273 59.7213V86H27.2727V58.6487H34.9091C41.0182 58.2196 42 53.2857 42 51.1405V24.8618C42 20.5714 34.3636 19.4989 33.2727 24.8618V51.1405H27.2727V6.62761C26.1818 0.728645 15.8182 0.192281 14.7273 6.62761V51.1405H8.72727V28.0796C6.10909 23.3602 1.63636 24.3255 0 28.0796V53.2857C0 58.8632 3.63636 59.9001 5.45455 59.7213H14.7273Z" fill="#9E9E9E"/>
<path d="M54.5195 66.9167V86H63.4805V66.1377H68.9351C73.2987 65.8262 74 62.2432 74 60.6854V41.602C74 38.4864 68.5455 37.7075 67.7662 41.602V60.6854H63.4805V28.3605C62.7013 24.0768 55.2987 23.6873 54.5195 28.3605V60.6854H50.2338V43.9388C48.3636 40.5116 45.1688 41.2126 44 43.9388V62.2432C44 66.2935 46.5974 67.0465 47.8961 66.9167H54.5195Z" fill="#9E9E9E"/>
</svg>
