<svg viewBox="0 0 56 56" fill="none" xmlns="http://www.w3.org/2000/svg">
<path d="M32.5455 22.5455C32.4091 21.3939 31.8561 20.5 30.8864 19.8636C29.9167 19.2273 28.7273 18.9091 27.3182 18.9091C26.2879 18.9091 25.3864 19.0758 24.6136 19.4091C23.8485 19.7424 23.25 20.2008 22.8182 20.7841C22.3939 21.3674 22.1818 22.0303 22.1818 22.7727C22.1818 23.3939 22.3295 23.928 22.625 24.375C22.928 24.8144 23.3144 25.1818 23.7841 25.4773C24.2538 25.7652 24.7462 26.0038 25.2614 26.1932C25.7765 26.375 26.25 26.5227 26.6818 26.6364L29.0455 27.2727C29.6515 27.4318 30.3258 27.6515 31.0682 27.9318C31.8182 28.2121 32.5341 28.5947 33.2159 29.0795C33.9053 29.5568 34.4735 30.1705 34.9205 30.9205C35.3674 31.6705 35.5909 32.5909 35.5909 33.6818C35.5909 34.9394 35.2614 36.0758 34.6023 37.0909C33.9508 38.1061 32.9962 38.9129 31.7386 39.5114C30.4886 40.1098 28.9697 40.4091 27.1818 40.4091C25.5152 40.4091 24.072 40.1402 22.8523 39.6023C21.6402 39.0644 20.6856 38.3144 19.9886 37.3523C19.2992 36.3902 18.9091 35.2727 18.8182 34H21.7273C21.803 34.8788 22.0985 35.6061 22.6136 36.1818C23.1364 36.75 23.7955 37.1742 24.5909 37.4545C25.3939 37.7273 26.2576 37.8636 27.1818 37.8636C28.2576 37.8636 29.2235 37.6894 30.0795 37.3409C30.9356 36.9848 31.6136 36.4924 32.1136 35.8636C32.6136 35.2273 32.8636 34.4848 32.8636 33.6364C32.8636 32.8636 32.6477 32.2348 32.2159 31.75C31.7841 31.2652 31.2159 30.8712 30.5114 30.5682C29.8068 30.2652 29.0455 30 28.2273 29.7727L25.3636 28.9545C23.5455 28.4318 22.1061 27.6856 21.0455 26.7159C19.9848 25.7462 19.4545 24.4773 19.4545 22.9091C19.4545 21.6061 19.8068 20.4697 20.5114 19.5C21.2235 18.5227 22.178 17.7652 23.375 17.2273C24.5795 16.6818 25.9242 16.4091 27.4091 16.4091C28.9091 16.4091 30.2424 16.678 31.4091 17.2159C32.5758 17.7462 33.5 18.4735 34.1818 19.3977C34.8712 20.322 35.2348 21.3712 35.2727 22.5455H32.5455Z" fill="#9E9E9E" fill-opacity="0.7"/>
<path d="M48 1.5H8C4.41015 1.5 1.5 4.41015 1.5 8V48C1.5 51.5899 4.41015 54.5 8 54.5H48C51.5899 54.5 54.5 51.5899 54.5 48V8C54.5 4.41015 51.5899 1.5 48 1.5Z" stroke="#9E9E9E" stroke-opacity="0.7" stroke-width="3"/>
</svg>
